<svg xmlns="http://www.w3.org/2000/svg" viewBox="0 0 48 48" width="100%" height="100%">
  <!-- Outer glow -->
  <circle cx="24" cy="20" r="14" fill="#FEF08A" opacity="0.5" />
  <!-- Bulb outline -->
  <path d="M16 20 C16 13, 32 13, 32 20 C32 25, 28 28, 28 32 L20 32 C20 28, 16 25, 16 20 Z" fill="#FB923C" stroke="#0b1120" stroke-width="2" stroke-linejoin="round" />
  <!-- Filament / Glow lines inside -->
  <path d="M24 13 L24 23 M19 16 L29 24 M29 16 L19 24" stroke="#ffffff" stroke-width="2" stroke-linecap="round" />
  <!-- Bulb base -->
  <path d="M20 32 L28 32 L27 36 L21 36 Z M22 36 L26 36 L24 39 Z" fill="#94a3b8" stroke="#0b1120" stroke-width="2" stroke-linejoin="round" />
  <!-- Ray lines -->
  <path d="M24 4 L24 8 M38 10 L35 13 M44 20 L40 20 M38 30 L35 27 M10 10 L13 13 M4 20 L8 20 M10 30 L13 27" stroke="#FB923C" stroke-width="2" stroke-linecap="round" />
</svg>
